<svg xmlns="http://www.w3.org/2000/svg" xmlns:xlink="http://www.w3.org/1999/xlink" width="512" height="512" preserveAspectRatio="xMidYMid meet" viewBox="0 0 512 512" style="-ms-transform: rotate(360deg); -webkit-transform: rotate(360deg); transform: rotate(360deg);"><path fill="#626262" d="M472 96h-88V40h-32v56H160V40h-32v56H40a24.028 24.028 0 0 0-24 24v336a24.028 24.028 0 0 0 24 24h432a24.028 24.028 0 0 0 24-24V120a24.028 24.028 0 0 0-24-24zm-8 352H48V128h80v40h32v-40h192v40h32v-40h80z"/><path fill="#626262" d="M112 224h32v32h-32z"/><path fill="#626262" d="M200 224h32v32h-32z"/><path fill="#626262" d="M280 224h32v32h-32z"/><path fill="#626262" d="M368 224h32v32h-32z"/><path fill="#626262" d="M112 296h32v32h-32z"/><path fill="#626262" d="M200 296h32v32h-32z"/><path fill="#626262" d="M280 296h32v32h-32z"/><path fill="#626262" d="M368 296h32v32h-32z"/><path fill="#626262" d="M112 368h32v32h-32z"/><path fill="#626262" d="M200 368h32v32h-32z"/><path fill="#626262" d="M280 368h32v32h-32z"/><path fill="#626262" d="M368 368h32v32h-32z"/><rect x="0" y="0" width="512" height="512" fill="rgba(0, 0, 0, 0)" /></svg>